<svg width="47pt" height="26pt" viewBox="0 0 47 26" xmlns="http://www.w3.org/2000/svg"><g stroke-linecap="round" fill-rule="evenodd" fill="#000000"><path d="M 46.2 16.28 L 46.2 25.2 A 0.576 0.576 0 0 1 46.18 25.359 Q 46.129 25.536 45.948 25.583 A 0.589 0.589 0 0 1 45.8 25.6 L 23.64 25.6 A 0.576 0.576 0 0 1 23.482 25.58 Q 23.304 25.53 23.257 25.348 A 0.589 0.589 0 0 1 23.24 25.2 L 23.24 13.2 L 32.84 7.04 L 32.16 7.04 L 27.6 9.76 L 23.56 9.76 A 0.576 0.576 0 0 1 23.402 9.74 Q 23.224 9.69 23.177 9.508 A 0.589 0.589 0 0 1 23.16 9.36 L 23.16 5.6 Q 23.16 3.584 23.951 2.271 A 4.332 4.332 0 0 1 24.6 1.44 A 4.631 4.631 0 0 1 26.591 0.286 Q 27.309 0.072 28.17 0.018 A 9.503 9.503 0 0 1 28.76 0 L 40.6 0 Q 42.616 0 43.929 0.792 A 4.332 4.332 0 0 1 44.76 1.44 A 4.631 4.631 0 0 1 45.915 3.432 Q 46.129 4.15 46.182 5.01 A 9.503 9.503 0 0 1 46.2 5.6 L 46.2 12.24 L 36.52 18.56 L 37.2 18.56 L 41.8 15.84 L 45.8 15.84 A 0.519 0.519 0 0 1 45.965 15.864 Q 46.196 15.942 46.2 16.268 A 0.948 0.948 0 0 1 46.2 16.28 Z M 18.04 16 L 22.16 16 Q 22.513 16 22.52 16.386 A 0.865 0.865 0 0 1 22.52 16.4 L 22.52 25.2 A 0.647 0.647 0 0 1 22.504 25.351 Q 22.455 25.553 22.259 25.591 A 0.52 0.52 0 0 1 22.16 25.6 L 0.4 25.6 A 0.576 0.576 0 0 1 0.242 25.58 Q 0.064 25.53 0.017 25.348 A 0.589 0.589 0 0 1 0 25.2 L 0 16.4 A 0.576 0.576 0 0 1 0.02 16.242 Q 0.071 16.064 0.252 16.017 A 0.589 0.589 0 0 1 0.4 16 L 6.04 16 L 6.04 9.76 L 2.48 9.76 Q 2.127 9.76 2.12 9.375 A 0.865 0.865 0 0 1 2.12 9.36 L 2.12 0.4 A 0.647 0.647 0 0 1 2.136 0.249 Q 2.185 0.047 2.381 0.009 A 0.52 0.52 0 0 1 2.48 0 L 17.68 0 Q 18.033 0 18.04 0.386 A 0.865 0.865 0 0 1 18.04 0.4 L 18.04 16 Z" vector-effect="non-scaling-stroke"/></g></svg>