<svg width="46pt" height="26pt" viewBox="0 0 46 26" xmlns="http://www.w3.org/2000/svg"><g stroke-linecap="round" fill-rule="evenodd" fill="#000000"><path d="M 39.84 25.6 L 23.56 25.6 A 0.576 0.576 0 0 1 23.402 25.58 Q 23.224 25.529 23.177 25.348 A 0.589 0.589 0 0 1 23.16 25.2 L 23.16 16.56 Q 23.16 16.185 23.451 16.13 A 0.585 0.585 0 0 1 23.56 16.12 L 32.68 16.12 L 32.68 15.56 L 23.56 15.56 A 0.576 0.576 0 0 1 23.402 15.54 Q 23.224 15.489 23.177 15.308 A 0.589 0.589 0 0 1 23.16 15.16 L 23.16 0.4 A 0.576 0.576 0 0 1 23.18 0.242 Q 23.231 0.064 23.412 0.017 A 0.589 0.589 0 0 1 23.56 0 L 45.16 0 Q 45.513 0 45.52 0.386 A 0.865 0.865 0 0 1 45.52 0.4 L 45.52 9.04 A 0.785 0.785 0 0 1 45.505 9.203 Q 45.446 9.48 45.16 9.48 L 35.08 9.48 L 35.08 10.04 L 39.92 10.04 Q 41.936 10.04 43.249 10.831 A 4.332 4.332 0 0 1 44.08 11.48 A 4.631 4.631 0 0 1 45.235 13.471 Q 45.449 14.189 45.502 15.05 A 9.503 9.503 0 0 1 45.52 15.64 L 45.52 19.92 A 6.211 6.211 0 0 1 45.21 21.922 A 5.257 5.257 0 0 1 43.9 24 A 5.483 5.483 0 0 1 40.142 25.594 A 7.215 7.215 0 0 1 39.84 25.6 Z M 18.04 16 L 22.16 16 Q 22.513 16 22.52 16.386 A 0.865 0.865 0 0 1 22.52 16.4 L 22.52 25.2 A 0.647 0.647 0 0 1 22.504 25.351 Q 22.455 25.553 22.259 25.591 A 0.52 0.52 0 0 1 22.16 25.6 L 0.4 25.6 A 0.576 0.576 0 0 1 0.242 25.58 Q 0.064 25.529 0.017 25.348 A 0.589 0.589 0 0 1 0 25.2 L 0 16.4 A 0.576 0.576 0 0 1 0.02 16.242 Q 0.071 16.064 0.252 16.017 A 0.589 0.589 0 0 1 0.4 16 L 6.04 16 L 6.04 9.76 L 2.48 9.76 Q 2.127 9.76 2.12 9.375 A 0.865 0.865 0 0 1 2.12 9.36 L 2.12 0.4 A 0.647 0.647 0 0 1 2.136 0.249 Q 2.185 0.047 2.381 0.009 A 0.52 0.52 0 0 1 2.48 0 L 17.68 0 Q 18.033 0 18.04 0.386 A 0.865 0.865 0 0 1 18.04 0.4 L 18.04 16 Z" vector-effect="non-scaling-stroke"/></g></svg>