<svg width="24pt" height="26pt" viewBox="0 0 24 26" xmlns="http://www.w3.org/2000/svg"><g stroke-linecap="round" fill-rule="evenodd" fill="#000000"><path d="M 23.04 16.28 L 23.04 25.2 A 0.576 0.576 0 0 1 23.02 25.359 Q 22.97 25.536 22.788 25.583 A 0.589 0.589 0 0 1 22.64 25.6 L 0.48 25.6 A 0.576 0.576 0 0 1 0.322 25.58 Q 0.144 25.53 0.097 25.348 A 0.589 0.589 0 0 1 0.08 25.2 L 0.08 13.2 L 9.68 7.04 L 9 7.04 L 4.44 9.76 L 0.4 9.76 A 0.576 0.576 0 0 1 0.242 9.74 Q 0.064 9.69 0.017 9.508 A 0.589 0.589 0 0 1 0 9.36 L 0 5.6 Q 0 3.584 0.792 2.271 A 4.332 4.332 0 0 1 1.44 1.44 A 4.631 4.631 0 0 1 3.432 0.286 Q 4.15 0.072 5.01 0.018 A 9.503 9.503 0 0 1 5.6 0 L 17.44 0 Q 19.457 0 20.769 0.792 A 4.332 4.332 0 0 1 21.6 1.44 A 4.631 4.631 0 0 1 22.755 3.432 Q 22.969 4.15 23.022 5.01 A 9.503 9.503 0 0 1 23.04 5.6 L 23.04 12.24 L 13.36 18.56 L 14.04 18.56 L 18.64 15.84 L 22.64 15.84 A 0.519 0.519 0 0 1 22.805 15.864 Q 23.036 15.942 23.04 16.268 A 0.948 0.948 0 0 1 23.04 16.28 Z" vector-effect="non-scaling-stroke"/></g></svg>