<svg width="24pt" height="26pt" viewBox="0 0 24 26" xmlns="http://www.w3.org/2000/svg"><g stroke-linecap="round" fill-rule="evenodd" fill="#000000"><path d="M 10.16 20.16 L 0.4 20.16 A 0.576 0.576 0 0 1 0.242 20.14 Q 0.064 20.089 0.017 19.908 A 0.589 0.589 0 0 1 0 19.76 L 0 0.4 A 0.576 0.576 0 0 1 0.02 0.242 Q 0.071 0.064 0.252 0.017 A 0.589 0.589 0 0 1 0.4 0 L 9.16 0 Q 9.513 0 9.52 0.386 A 0.865 0.865 0 0 1 9.52 0.4 L 9.52 13.12 L 10 13.12 L 10.16 0.4 A 0.576 0.576 0 0 1 10.18 0.242 Q 10.231 0.064 10.412 0.017 A 0.589 0.589 0 0 1 10.56 0 L 21.8 0 Q 22.153 0 22.16 0.386 A 0.865 0.865 0 0 1 22.16 0.4 L 22.16 13.12 L 23.28 13.12 Q 23.633 13.12 23.64 13.506 A 0.865 0.865 0 0 1 23.64 13.52 L 23.64 19.76 A 0.647 0.647 0 0 1 23.624 19.911 Q 23.575 20.113 23.379 20.151 A 0.52 0.52 0 0 1 23.28 20.16 L 22.16 20.16 L 22.16 25.2 A 0.647 0.647 0 0 1 22.144 25.351 Q 22.095 25.553 21.899 25.591 A 0.52 0.52 0 0 1 21.8 25.6 L 10.56 25.6 A 0.576 0.576 0 0 1 10.402 25.58 Q 10.224 25.529 10.177 25.348 A 0.589 0.589 0 0 1 10.16 25.2 L 10.16 20.16 Z" vector-effect="non-scaling-stroke"/></g></svg>