<svg width="25pt" height="26pt" viewBox="0 0 25 26" xmlns="http://www.w3.org/2000/svg"><g stroke-linecap="round" fill-rule="evenodd" fill="#000000"><path d="M 5.6 0 L 19.04 0 Q 21.057 0 22.369 0.792 A 4.332 4.332 0 0 1 23.2 1.44 A 4.631 4.631 0 0 1 24.355 3.432 Q 24.569 4.15 24.622 5.01 A 9.503 9.503 0 0 1 24.64 5.6 L 24.64 20 Q 24.64 22.017 23.849 23.329 A 4.332 4.332 0 0 1 23.2 24.16 A 4.631 4.631 0 0 1 21.209 25.315 Q 20.491 25.529 19.63 25.582 A 9.503 9.503 0 0 1 19.04 25.6 L 5.6 25.6 Q 3.584 25.6 2.271 24.809 A 4.332 4.332 0 0 1 1.44 24.16 A 4.631 4.631 0 0 1 0.286 22.169 Q 0.072 21.451 0.018 20.59 A 9.503 9.503 0 0 1 0 20 L 0 16.4 A 0.576 0.576 0 0 1 0.02 16.242 Q 0.071 16.064 0.252 16.017 A 0.589 0.589 0 0 1 0.4 16 L 11.64 16 A 0.576 0.576 0 0 1 11.799 16.02 Q 11.976 16.071 12.023 16.252 A 0.589 0.589 0 0 1 12.04 16.4 L 12.04 18.56 L 12.6 18.56 L 12.6 15.44 L 5.6 15.44 Q 3.584 15.44 2.271 14.649 A 4.332 4.332 0 0 1 1.44 14 A 4.631 4.631 0 0 1 0.286 12.009 Q 0.072 11.291 0.018 10.43 A 9.503 9.503 0 0 1 0 9.84 L 0 5.6 Q 0 3.584 0.792 2.271 A 4.332 4.332 0 0 1 1.44 1.44 A 4.631 4.631 0 0 1 3.432 0.286 Q 4.15 0.072 5.01 0.018 A 9.503 9.503 0 0 1 5.6 0 Z M 12.04 7.04 L 12.04 10 L 12.6 10 L 12.6 7.04 L 12.04 7.04 Z" vector-effect="non-scaling-stroke"/></g></svg>