<svg width="38pt" height="20pt" viewBox="0 0 38 20" xmlns="http://www.w3.org/2000/svg"><g stroke-linecap="round" fill-rule="evenodd" fill="#000000"><path d="M 33.12 19.2 L 23.1 19.2 Q 21.588 19.2 20.603 18.607 A 3.249 3.249 0 0 1 19.98 18.12 A 3.473 3.473 0 0 1 19.114 16.627 Q 18.954 16.088 18.913 15.442 A 7.127 7.127 0 0 1 18.9 15 L 18.9 12.48 A 0.526 0.526 0 0 1 18.914 12.354 Q 18.955 12.188 19.118 12.157 A 0.439 0.439 0 0 1 19.2 12.15 L 27.63 12.15 A 0.486 0.486 0 0 1 27.743 12.162 Q 27.895 12.199 27.923 12.346 A 0.39 0.39 0 0 1 27.93 12.42 L 27.93 13.92 L 28.35 13.92 L 28.35 11.7 L 23.1 11.7 Q 21.588 11.7 20.603 11.107 A 3.249 3.249 0 0 1 19.98 10.62 A 3.473 3.473 0 0 1 19.114 9.127 Q 18.954 8.588 18.913 7.942 A 7.127 7.127 0 0 1 18.9 7.5 L 18.9 4.2 Q 18.9 2.688 19.494 1.703 A 3.249 3.249 0 0 1 19.98 1.08 A 3.473 3.473 0 0 1 21.474 0.214 Q 22.012 0.054 22.658 0.014 A 7.127 7.127 0 0 1 23.1 0 L 33.18 0 Q 34.692 0 35.677 0.594 A 3.249 3.249 0 0 1 36.3 1.08 A 3.473 3.473 0 0 1 37.166 2.574 Q 37.327 3.112 37.367 3.758 A 7.127 7.127 0 0 1 37.38 4.2 L 37.38 6.84 A 0.432 0.432 0 0 1 37.365 6.959 Q 37.327 7.092 37.191 7.127 A 0.442 0.442 0 0 1 37.08 7.14 L 28.65 7.14 A 0.486 0.486 0 0 1 28.537 7.128 Q 28.385 7.092 28.357 6.945 A 0.39 0.39 0 0 1 28.35 6.87 L 28.35 5.28 L 27.93 5.28 L 27.93 7.59 L 33.18 7.59 Q 34.692 7.59 35.677 8.184 A 3.249 3.249 0 0 1 36.3 8.67 A 3.473 3.473 0 0 1 37.166 10.164 Q 37.327 10.702 37.367 11.348 A 7.127 7.127 0 0 1 37.38 11.79 L 37.38 14.94 A 4.712 4.712 0 0 1 37.151 16.441 A 3.95 3.95 0 0 1 36.18 18 A 4.053 4.053 0 0 1 33.526 19.185 A 5.443 5.443 0 0 1 33.12 19.2 Z M 8.7 19.2 L 0.3 19.2 A 0.432 0.432 0 0 1 0.181 19.185 Q 0.048 19.147 0.013 19.011 A 0.442 0.442 0 0 1 0 18.9 L 0 0.3 A 0.432 0.432 0 0 1 0.015 0.181 Q 0.053 0.048 0.189 0.013 A 0.442 0.442 0 0 1 0.3 0 L 14.22 0 Q 15.732 0 16.717 0.594 A 3.249 3.249 0 0 1 17.34 1.08 A 3.473 3.473 0 0 1 18.206 2.574 Q 18.367 3.112 18.407 3.758 A 7.127 7.127 0 0 1 18.42 4.2 L 18.42 10.92 Q 18.42 12.432 17.827 13.417 A 3.249 3.249 0 0 1 17.34 14.04 A 3.473 3.473 0 0 1 15.847 14.906 Q 15.308 15.067 14.662 15.107 A 7.127 7.127 0 0 1 14.22 15.12 L 9 15.12 L 9 18.9 A 0.432 0.432 0 0 1 8.985 19.019 Q 8.947 19.152 8.811 19.187 A 0.442 0.442 0 0 1 8.7 19.2 Z M 8.94 5.28 L 8.94 9.84 L 9.39 9.84 L 9.39 5.28 L 8.94 5.28 Z" vector-effect="non-scaling-stroke"/></g></svg>