<svg width="48pt" height="26pt" viewBox="0 0 48 26" xmlns="http://www.w3.org/2000/svg"><g stroke-linecap="round" fill-rule="evenodd" fill="#000000"><path d="M 47.16 5.6 L 47.16 8.28 A 4.874 4.874 0 0 1 46.689 10.452 Q 46.053 11.75 44.56 12.6 Q 47.16 14.2 47.16 17.32 L 47.16 20 Q 47.16 22.017 46.369 23.329 A 4.332 4.332 0 0 1 45.72 24.16 A 4.631 4.631 0 0 1 43.729 25.315 Q 43.011 25.529 42.15 25.582 A 9.503 9.503 0 0 1 41.56 25.6 L 28.76 25.6 Q 26.744 25.6 25.431 24.809 A 4.332 4.332 0 0 1 24.6 24.16 A 4.631 4.631 0 0 1 23.446 22.169 Q 23.231 21.451 23.178 20.59 A 9.503 9.503 0 0 1 23.16 20 L 23.16 16.44 Q 23.16 16.087 23.546 16.08 A 0.865 0.865 0 0 1 23.56 16.08 L 33.88 16.08 L 33.88 15.48 L 25.48 15.48 A 0.518 0.518 0 0 1 25.338 15.462 Q 25.178 15.417 25.135 15.254 A 0.53 0.53 0 0 1 25.12 15.12 L 25.12 10.48 A 0.518 0.518 0 0 1 25.138 10.338 Q 25.184 10.178 25.347 10.136 A 0.53 0.53 0 0 1 25.48 10.12 L 33.88 10.12 L 33.88 9.52 L 23.56 9.52 A 0.647 0.647 0 0 1 23.409 9.504 Q 23.207 9.456 23.169 9.26 A 0.52 0.52 0 0 1 23.16 9.16 L 23.16 5.6 Q 23.16 3.584 23.951 2.271 A 4.332 4.332 0 0 1 24.6 1.44 A 4.631 4.631 0 0 1 26.591 0.286 Q 27.309 0.072 28.17 0.018 A 9.503 9.503 0 0 1 28.76 0 L 41.56 0 Q 43.576 0 44.889 0.792 A 4.332 4.332 0 0 1 45.72 1.44 A 4.631 4.631 0 0 1 46.875 3.432 Q 47.089 4.15 47.142 5.01 A 9.503 9.503 0 0 1 47.16 5.6 Z M 18.04 16 L 22.16 16 Q 22.513 16 22.52 16.386 A 0.865 0.865 0 0 1 22.52 16.4 L 22.52 25.2 A 0.647 0.647 0 0 1 22.504 25.351 Q 22.455 25.553 22.259 25.591 A 0.52 0.52 0 0 1 22.16 25.6 L 0.4 25.6 A 0.576 0.576 0 0 1 0.242 25.58 Q 0.064 25.53 0.017 25.348 A 0.589 0.589 0 0 1 0 25.2 L 0 16.4 A 0.576 0.576 0 0 1 0.02 16.242 Q 0.071 16.064 0.252 16.017 A 0.589 0.589 0 0 1 0.4 16 L 6.04 16 L 6.04 9.76 L 2.48 9.76 Q 2.127 9.76 2.12 9.375 A 0.865 0.865 0 0 1 2.12 9.36 L 2.12 0.4 A 0.647 0.647 0 0 1 2.136 0.249 Q 2.185 0.047 2.381 0.009 A 0.52 0.52 0 0 1 2.48 0 L 17.68 0 Q 18.033 0 18.04 0.386 A 0.865 0.865 0 0 1 18.04 0.4 L 18.04 16 Z" vector-effect="non-scaling-stroke"/></g></svg>