<svg width="47pt" height="26pt" viewBox="0 0 47 26" xmlns="http://www.w3.org/2000/svg"><g stroke-linecap="round" fill-rule="evenodd" fill="#000000"><path d="M 33.32 20.16 L 23.56 20.16 A 0.576 0.576 0 0 1 23.402 20.14 Q 23.224 20.089 23.177 19.908 A 0.589 0.589 0 0 1 23.16 19.76 L 23.16 0.4 A 0.576 0.576 0 0 1 23.18 0.242 Q 23.231 0.064 23.412 0.017 A 0.589 0.589 0 0 1 23.56 0 L 32.32 0 Q 32.673 0 32.68 0.386 A 0.865 0.865 0 0 1 32.68 0.4 L 32.68 13.12 L 33.16 13.12 L 33.32 0.4 A 0.576 0.576 0 0 1 33.34 0.242 Q 33.391 0.064 33.572 0.017 A 0.589 0.589 0 0 1 33.72 0 L 44.96 0 Q 45.313 0 45.32 0.386 A 0.865 0.865 0 0 1 45.32 0.4 L 45.32 13.12 L 46.44 13.12 Q 46.793 13.12 46.8 13.506 A 0.865 0.865 0 0 1 46.8 13.52 L 46.8 19.76 A 0.647 0.647 0 0 1 46.784 19.911 Q 46.735 20.113 46.539 20.151 A 0.52 0.52 0 0 1 46.44 20.16 L 45.32 20.16 L 45.32 25.2 A 0.647 0.647 0 0 1 45.304 25.351 Q 45.255 25.553 45.059 25.591 A 0.52 0.52 0 0 1 44.96 25.6 L 33.72 25.6 A 0.576 0.576 0 0 1 33.562 25.58 Q 33.384 25.529 33.337 25.348 A 0.589 0.589 0 0 1 33.32 25.2 L 33.32 20.16 Z M 18.04 16 L 22.16 16 Q 22.513 16 22.52 16.386 A 0.865 0.865 0 0 1 22.52 16.4 L 22.52 25.2 A 0.647 0.647 0 0 1 22.504 25.351 Q 22.455 25.553 22.259 25.591 A 0.52 0.52 0 0 1 22.16 25.6 L 0.4 25.6 A 0.576 0.576 0 0 1 0.242 25.58 Q 0.064 25.529 0.017 25.348 A 0.589 0.589 0 0 1 0 25.2 L 0 16.4 A 0.576 0.576 0 0 1 0.02 16.242 Q 0.071 16.064 0.252 16.017 A 0.589 0.589 0 0 1 0.4 16 L 6.04 16 L 6.04 9.76 L 2.48 9.76 Q 2.127 9.76 2.12 9.375 A 0.865 0.865 0 0 1 2.12 9.36 L 2.12 0.4 A 0.647 0.647 0 0 1 2.136 0.249 Q 2.185 0.047 2.381 0.009 A 0.52 0.52 0 0 1 2.48 0 L 17.68 0 Q 18.033 0 18.04 0.386 A 0.865 0.865 0 0 1 18.04 0.4 L 18.04 16 Z" vector-effect="non-scaling-stroke"/></g></svg>