<svg width="25pt" height="26pt" viewBox="0 0 25 26" xmlns="http://www.w3.org/2000/svg"><g stroke-linecap="round" fill-rule="evenodd" fill="#000000"><path d="M 24 5.6 L 24 8.28 A 4.874 4.874 0 0 1 23.529 10.452 Q 22.893 11.75 21.4 12.6 Q 24 14.2 24 17.32 L 24 20 Q 24 22.017 23.209 23.329 A 4.332 4.332 0 0 1 22.56 24.16 A 4.631 4.631 0 0 1 20.569 25.315 Q 19.851 25.529 18.99 25.582 A 9.503 9.503 0 0 1 18.4 25.6 L 5.6 25.6 Q 3.584 25.6 2.271 24.809 A 4.332 4.332 0 0 1 1.44 24.16 A 4.631 4.631 0 0 1 0.286 22.169 Q 0.072 21.451 0.018 20.59 A 9.503 9.503 0 0 1 0 20 L 0 16.44 Q 0 16.087 0.386 16.08 A 0.865 0.865 0 0 1 0.4 16.08 L 10.72 16.08 L 10.72 15.48 L 2.32 15.48 A 0.518 0.518 0 0 1 2.178 15.462 Q 2.018 15.417 1.976 15.254 A 0.53 0.53 0 0 1 1.96 15.12 L 1.96 10.48 A 0.518 0.518 0 0 1 1.978 10.338 Q 2.024 10.178 2.187 10.136 A 0.53 0.53 0 0 1 2.32 10.12 L 10.72 10.12 L 10.72 9.52 L 0.4 9.52 A 0.647 0.647 0 0 1 0.249 9.504 Q 0.047 9.456 0.009 9.26 A 0.52 0.52 0 0 1 0 9.16 L 0 5.6 Q 0 3.584 0.792 2.271 A 4.332 4.332 0 0 1 1.44 1.44 A 4.631 4.631 0 0 1 3.432 0.286 Q 4.15 0.072 5.01 0.018 A 9.503 9.503 0 0 1 5.6 0 L 18.4 0 Q 20.417 0 21.729 0.792 A 4.332 4.332 0 0 1 22.56 1.44 A 4.631 4.631 0 0 1 23.715 3.432 Q 23.929 4.15 23.982 5.01 A 9.503 9.503 0 0 1 24 5.6 Z" vector-effect="non-scaling-stroke"/></g></svg>