<svg width="23pt" height="26pt" viewBox="0 0 23 26" xmlns="http://www.w3.org/2000/svg"><g stroke-linecap="round" fill-rule="evenodd" fill="#000000"><path d="M 16.68 25.6 L 0.4 25.6 A 0.576 0.576 0 0 1 0.242 25.58 Q 0.064 25.529 0.017 25.348 A 0.589 0.589 0 0 1 0 25.2 L 0 16.56 Q 0 16.185 0.291 16.13 A 0.585 0.585 0 0 1 0.4 16.12 L 9.52 16.12 L 9.52 15.56 L 0.4 15.56 A 0.576 0.576 0 0 1 0.242 15.54 Q 0.064 15.489 0.017 15.308 A 0.589 0.589 0 0 1 0 15.16 L 0 0.4 A 0.576 0.576 0 0 1 0.02 0.242 Q 0.071 0.064 0.252 0.017 A 0.589 0.589 0 0 1 0.4 0 L 22 0 Q 22.353 0 22.36 0.386 A 0.865 0.865 0 0 1 22.36 0.4 L 22.36 9.04 A 0.785 0.785 0 0 1 22.345 9.203 Q 22.286 9.48 22 9.48 L 11.92 9.48 L 11.92 10.04 L 16.76 10.04 Q 18.776 10.04 20.089 10.831 A 4.332 4.332 0 0 1 20.92 11.48 A 4.631 4.631 0 0 1 22.075 13.471 Q 22.289 14.189 22.342 15.05 A 9.503 9.503 0 0 1 22.36 15.64 L 22.36 19.92 A 6.211 6.211 0 0 1 22.05 21.922 A 5.257 5.257 0 0 1 20.74 24 A 5.483 5.483 0 0 1 16.982 25.594 A 7.215 7.215 0 0 1 16.68 25.6 Z" vector-effect="non-scaling-stroke"/></g></svg>