<svg width="24pt" height="26pt" viewBox="0 0 24 26" xmlns="http://www.w3.org/2000/svg"><g stroke-linecap="round" fill-rule="evenodd" fill="#000000"><path d="M 15.4 25.6 L 3.44 25.6 A 0.576 0.576 0 0 1 3.282 25.58 Q 3.104 25.529 3.057 25.348 A 0.589 0.589 0 0 1 3.04 25.2 L 3.04 13.52 L 11.92 7.04 L 11.24 7.04 L 7.08 9.84 L 0.4 9.84 A 0.576 0.576 0 0 1 0.242 9.82 Q 0.064 9.769 0.017 9.588 A 0.589 0.589 0 0 1 0 9.44 L 0 0.4 A 0.576 0.576 0 0 1 0.02 0.242 Q 0.071 0.064 0.252 0.017 A 0.589 0.589 0 0 1 0.4 0 L 22.76 0 Q 23.113 0 23.12 0.386 A 0.865 0.865 0 0 1 23.12 0.4 L 23.12 14.04 L 15.76 20.16 L 15.76 25.2 A 0.647 0.647 0 0 1 15.744 25.351 Q 15.695 25.553 15.499 25.591 A 0.52 0.52 0 0 1 15.4 25.6 Z" vector-effect="non-scaling-stroke"/></g></svg>