<svg width="25pt" height="26pt" viewBox="0 0 25 26" xmlns="http://www.w3.org/2000/svg"><g stroke-linecap="round" fill-rule="evenodd" fill="#000000"><path d="M 24.64 5.6 L 24.64 8.28 A 4.874 4.874 0 0 1 24.169 10.452 Q 23.533 11.75 22.04 12.6 Q 24.362 13.993 24.611 16.663 A 7.098 7.098 0 0 1 24.64 17.32 L 24.64 20 Q 24.64 22.017 23.849 23.329 A 4.332 4.332 0 0 1 23.2 24.16 A 4.631 4.631 0 0 1 21.209 25.315 Q 20.491 25.529 19.63 25.582 A 9.503 9.503 0 0 1 19.04 25.6 L 5.6 25.6 Q 3.584 25.6 2.271 24.809 A 4.332 4.332 0 0 1 1.44 24.16 A 4.631 4.631 0 0 1 0.286 22.169 Q 0.072 21.451 0.018 20.59 A 9.503 9.503 0 0 1 0 20 L 0 17.32 Q 0 14.16 2.6 12.6 A 5.677 5.677 0 0 1 1.12 11.422 Q 0.053 10.204 0.003 8.454 A 6.07 6.07 0 0 1 0 8.28 L 0 5.6 Q 0 3.584 0.792 2.271 A 4.332 4.332 0 0 1 1.44 1.44 A 4.631 4.631 0 0 1 3.432 0.286 Q 4.15 0.072 5.011 0.018 A 9.503 9.503 0 0 1 5.6 0 L 19.04 0 Q 21.057 0 22.37 0.792 A 4.332 4.332 0 0 1 23.2 1.44 A 4.631 4.631 0 0 1 24.355 3.432 Q 24.569 4.15 24.623 5.01 A 9.503 9.503 0 0 1 24.64 5.6 Z M 12.04 18.56 L 12.6 18.56 L 12.6 15.68 L 12.04 15.68 L 12.04 18.56 Z M 12.04 9.92 L 12.6 9.92 L 12.6 7.04 L 12.04 7.04 L 12.04 9.92 Z" vector-effect="non-scaling-stroke"/></g></svg>