<svg width="176pt" height="20pt" viewBox="0 0 176 20" xmlns="http://www.w3.org/2000/svg"><g stroke-linecap="round" fill-rule="evenodd" fill="#000000"><path d="M 37.92 18.9 L 37.92 9.84 L 40.65 0.24 A 0.445 0.445 0 0 1 40.715 0.121 Q 40.802 0.01 40.954 0.001 A 0.456 0.456 0 0 1 40.98 0 L 48.24 0 A 0.358 0.358 0 0 1 48.361 0.019 Q 48.497 0.068 48.54 0.24 L 49.59 3.51 L 50.61 0.24 A 0.445 0.445 0 0 1 50.675 0.121 Q 50.762 0.01 50.914 0.001 A 0.456 0.456 0 0 1 50.94 0 L 58.17 0 A 0.454 0.454 0 0 1 58.295 0.016 Q 58.456 0.062 58.5 0.24 L 61.26 9.84 L 61.26 18.9 A 0.432 0.432 0 0 1 61.245 19.019 Q 61.207 19.152 61.071 19.187 A 0.442 0.442 0 0 1 60.96 19.2 L 52.53 19.2 A 0.347 0.347 0 0 1 52.418 19.184 Q 52.264 19.131 52.26 18.911 A 0.649 0.649 0 0 1 52.26 18.9 L 52.26 16.17 L 52.17 10.86 L 51.84 10.86 L 51.78 18.87 A 0.347 0.347 0 0 1 51.764 18.982 Q 51.711 19.136 51.491 19.14 A 0.649 0.649 0 0 1 51.48 19.14 L 47.7 19.14 A 0.486 0.486 0 0 1 47.587 19.128 Q 47.435 19.092 47.407 18.945 A 0.39 0.39 0 0 1 47.4 18.87 L 47.34 10.86 L 46.98 10.86 L 46.92 16.17 L 46.92 18.9 A 0.432 0.432 0 0 1 46.905 19.019 Q 46.867 19.152 46.731 19.187 A 0.442 0.442 0 0 1 46.62 19.2 L 38.22 19.2 A 0.432 0.432 0 0 1 38.101 19.185 Q 37.968 19.147 37.933 19.011 A 0.442 0.442 0 0 1 37.92 18.9 Z M 154.95 19.2 L 144.93 19.2 Q 143.418 19.2 142.433 18.607 A 3.249 3.249 0 0 1 141.81 18.12 A 3.473 3.473 0 0 1 140.944 16.627 Q 140.784 16.088 140.744 15.442 A 7.127 7.127 0 0 1 140.73 15 L 140.73 12.48 A 0.526 0.526 0 0 1 140.744 12.354 Q 140.785 12.188 140.948 12.157 A 0.439 0.439 0 0 1 141.03 12.15 L 149.46 12.15 A 0.486 0.486 0 0 1 149.573 12.162 Q 149.725 12.199 149.753 12.346 A 0.39 0.39 0 0 1 149.76 12.42 L 149.76 13.92 L 150.18 13.92 L 150.18 11.7 L 144.93 11.7 Q 143.418 11.7 142.433 11.107 A 3.249 3.249 0 0 1 141.81 10.62 A 3.473 3.473 0 0 1 140.944 9.127 Q 140.784 8.588 140.744 7.942 A 7.127 7.127 0 0 1 140.73 7.5 L 140.73 4.2 Q 140.73 2.688 141.324 1.703 A 3.249 3.249 0 0 1 141.81 1.08 A 3.473 3.473 0 0 1 143.304 0.214 Q 143.842 0.054 144.488 0.014 A 7.127 7.127 0 0 1 144.93 0 L 155.01 0 Q 156.522 0 157.507 0.594 A 3.249 3.249 0 0 1 158.13 1.08 A 3.473 3.473 0 0 1 158.996 2.574 Q 159.157 3.112 159.197 3.758 A 7.127 7.127 0 0 1 159.21 4.2 L 159.21 6.84 A 0.432 0.432 0 0 1 159.195 6.959 Q 159.157 7.092 159.021 7.127 A 0.442 0.442 0 0 1 158.91 7.14 L 150.48 7.14 A 0.486 0.486 0 0 1 150.367 7.128 Q 150.215 7.092 150.187 6.945 A 0.39 0.39 0 0 1 150.18 6.87 L 150.18 5.28 L 149.76 5.28 L 149.76 7.59 L 155.01 7.59 Q 156.522 7.59 157.507 8.184 A 3.249 3.249 0 0 1 158.13 8.67 A 3.473 3.473 0 0 1 158.996 10.164 Q 159.157 10.702 159.197 11.348 A 7.127 7.127 0 0 1 159.21 11.79 L 159.21 14.94 A 4.712 4.712 0 0 1 158.981 16.441 A 3.95 3.95 0 0 1 158.01 18 A 4.053 4.053 0 0 1 155.356 19.185 A 5.443 5.443 0 0 1 154.95 19.2 Z M 9.75 9.12 L 18.18 9.12 A 0.432 0.432 0 0 1 18.299 9.135 Q 18.432 9.173 18.467 9.309 A 0.442 0.442 0 0 1 18.48 9.42 L 18.48 15 Q 18.48 16.512 17.887 17.497 A 3.249 3.249 0 0 1 17.4 18.12 A 3.473 3.473 0 0 1 15.907 18.986 Q 15.368 19.147 14.722 19.187 A 7.127 7.127 0 0 1 14.28 19.2 L 4.2 19.2 Q 2.688 19.2 1.703 18.607 A 3.249 3.249 0 0 1 1.08 18.12 A 3.473 3.473 0 0 1 0.214 16.627 Q 0.054 16.088 0.014 15.442 A 7.127 7.127 0 0 1 0 15 L 0 4.2 Q 0 2.688 0.594 1.703 A 3.249 3.249 0 0 1 1.08 1.08 A 3.473 3.473 0 0 1 2.574 0.214 Q 3.112 0.054 3.758 0.014 A 7.127 7.127 0 0 1 4.2 0 L 14.28 0 Q 15.792 0 16.777 0.594 A 3.249 3.249 0 0 1 17.4 1.08 A 3.473 3.473 0 0 1 18.266 2.574 Q 18.427 3.112 18.467 3.758 A 7.127 7.127 0 0 1 18.48 4.2 L 18.48 8.4 A 0.432 0.432 0 0 1 18.465 8.519 Q 18.427 8.652 18.291 8.687 A 0.442 0.442 0 0 1 18.18 8.7 L 9.75 8.7 A 0.432 0.432 0 0 1 9.631 8.685 Q 9.498 8.647 9.463 8.511 A 0.442 0.442 0 0 1 9.45 8.4 L 9.45 5.28 L 9.03 5.28 L 9.03 13.92 L 11.19 13.92 L 11.19 13.5 L 9.72 13.5 A 0.347 0.347 0 0 1 9.608 13.484 Q 9.454 13.431 9.45 13.211 A 0.649 0.649 0 0 1 9.45 13.2 L 9.45 9.42 A 0.432 0.432 0 0 1 9.465 9.301 Q 9.503 9.168 9.639 9.133 A 0.442 0.442 0 0 1 9.75 9.12 Z M 92.58 19.2 L 84.15 19.2 A 0.432 0.432 0 0 1 84.031 19.185 Q 83.898 19.147 83.863 19.011 A 0.442 0.442 0 0 1 83.85 18.9 L 83.85 0.3 A 0.432 0.432 0 0 1 83.865 0.181 Q 83.903 0.048 84.039 0.013 A 0.442 0.442 0 0 1 84.15 0 L 92.58 0 A 0.432 0.432 0 0 1 92.699 0.015 Q 92.832 0.053 92.867 0.189 A 0.442 0.442 0 0 1 92.88 0.3 L 92.88 7.11 L 93.3 7.11 L 93.3 0.3 A 0.432 0.432 0 0 1 93.315 0.181 Q 93.353 0.048 93.489 0.013 A 0.442 0.442 0 0 1 93.6 0 L 102.03 0 A 0.432 0.432 0 0 1 102.149 0.015 Q 102.282 0.053 102.317 0.189 A 0.442 0.442 0 0 1 102.33 0.3 L 102.33 18.9 A 0.432 0.432 0 0 1 102.315 19.019 Q 102.277 19.152 102.141 19.187 A 0.442 0.442 0 0 1 102.03 19.2 L 93.6 19.2 A 0.432 0.432 0 0 1 93.481 19.185 Q 93.348 19.147 93.313 19.011 A 0.442 0.442 0 0 1 93.3 18.9 L 93.3 12.39 L 92.88 12.39 L 92.88 18.9 A 0.432 0.432 0 0 1 92.865 19.019 Q 92.827 19.152 92.691 19.187 A 0.442 0.442 0 0 1 92.58 19.2 Z M 131.52 0 L 139.95 0 A 0.432 0.432 0 0 1 140.069 0.015 Q 140.202 0.053 140.237 0.189 A 0.442 0.442 0 0 1 140.25 0.3 L 140.25 15 Q 140.25 16.512 139.657 17.497 A 3.249 3.249 0 0 1 139.17 18.12 A 3.473 3.473 0 0 1 137.677 18.986 Q 137.138 19.147 136.492 19.187 A 7.127 7.127 0 0 1 136.05 19.2 L 125.97 19.2 Q 124.458 19.2 123.473 18.607 A 3.249 3.249 0 0 1 122.85 18.12 A 3.473 3.473 0 0 1 121.984 16.627 Q 121.824 16.088 121.784 15.442 A 7.127 7.127 0 0 1 121.77 15 L 121.77 0.3 A 0.432 0.432 0 0 1 121.785 0.181 Q 121.823 0.048 121.959 0.013 A 0.442 0.442 0 0 1 122.07 0 L 130.5 0 A 0.432 0.432 0 0 1 130.619 0.015 Q 130.752 0.053 130.787 0.189 A 0.442 0.442 0 0 1 130.8 0.3 L 130.8 13.92 L 131.22 13.92 L 131.22 0.3 A 0.432 0.432 0 0 1 131.235 0.181 Q 131.273 0.048 131.409 0.013 A 0.442 0.442 0 0 1 131.52 0 Z M 77.55 19.2 L 62.04 19.2 A 0.432 0.432 0 0 1 61.921 19.185 Q 61.788 19.147 61.753 19.011 A 0.442 0.442 0 0 1 61.74 18.9 L 61.74 0.3 A 0.432 0.432 0 0 1 61.755 0.181 Q 61.793 0.048 61.929 0.013 A 0.442 0.442 0 0 1 62.04 0 L 77.55 0 A 0.432 0.432 0 0 1 77.669 0.015 Q 77.802 0.053 77.837 0.189 A 0.442 0.442 0 0 1 77.85 0.3 L 77.85 7.02 A 0.432 0.432 0 0 1 77.835 7.139 Q 77.797 7.272 77.661 7.307 A 0.442 0.442 0 0 1 77.55 7.32 L 70.74 7.32 L 70.74 7.74 L 77.55 7.74 A 0.432 0.432 0 0 1 77.669 7.755 Q 77.802 7.793 77.837 7.929 A 0.442 0.442 0 0 1 77.85 8.04 L 77.85 11.46 A 0.347 0.347 0 0 1 77.834 11.572 Q 77.781 11.726 77.561 11.73 A 0.649 0.649 0 0 1 77.55 11.73 L 70.74 11.73 L 70.74 12.18 L 77.55 12.18 A 0.486 0.486 0 0 1 77.663 12.192 Q 77.815 12.229 77.843 12.376 A 0.39 0.39 0 0 1 77.85 12.45 L 77.85 18.9 A 0.432 0.432 0 0 1 77.835 19.019 Q 77.797 19.152 77.661 19.187 A 0.442 0.442 0 0 1 77.55 19.2 Z M 175.5 19.2 L 159.99 19.2 A 0.432 0.432 0 0 1 159.871 19.185 Q 159.738 19.147 159.703 19.011 A 0.442 0.442 0 0 1 159.69 18.9 L 159.69 0.3 A 0.432 0.432 0 0 1 159.705 0.181 Q 159.743 0.048 159.879 0.013 A 0.442 0.442 0 0 1 159.99 0 L 175.5 0 A 0.432 0.432 0 0 1 175.619 0.015 Q 175.752 0.053 175.787 0.189 A 0.442 0.442 0 0 1 175.8 0.3 L 175.8 7.02 A 0.432 0.432 0 0 1 175.785 7.139 Q 175.747 7.272 175.611 7.307 A 0.442 0.442 0 0 1 175.5 7.32 L 168.69 7.32 L 168.69 7.74 L 175.5 7.74 A 0.432 0.432 0 0 1 175.619 7.755 Q 175.752 7.793 175.787 7.929 A 0.442 0.442 0 0 1 175.8 8.04 L 175.8 11.46 A 0.347 0.347 0 0 1 175.784 11.572 Q 175.731 11.726 175.511 11.73 A 0.649 0.649 0 0 1 175.5 11.73 L 168.69 11.73 L 168.69 12.18 L 175.5 12.18 A 0.486 0.486 0 0 1 175.613 12.192 Q 175.765 12.229 175.793 12.376 A 0.39 0.39 0 0 1 175.8 12.45 L 175.8 18.9 A 0.432 0.432 0 0 1 175.785 19.019 Q 175.747 19.152 175.611 19.187 A 0.442 0.442 0 0 1 175.5 19.2 Z M 22.26 0 L 34.14 0 Q 34.41 0 34.5 0.24 L 37.44 12 L 37.44 18.9 A 0.432 0.432 0 0 1 37.425 19.019 Q 37.387 19.152 37.251 19.187 A 0.442 0.442 0 0 1 37.14 19.2 L 28.71 19.2 A 0.432 0.432 0 0 1 28.591 19.185 Q 28.458 19.147 28.423 19.011 A 0.442 0.442 0 0 1 28.41 18.9 L 28.41 15.12 L 27.99 15.12 L 27.99 18.9 A 0.432 0.432 0 0 1 27.975 19.019 Q 27.937 19.152 27.801 19.187 A 0.442 0.442 0 0 1 27.69 19.2 L 19.26 19.2 A 0.432 0.432 0 0 1 19.141 19.185 Q 19.008 19.147 18.973 19.011 A 0.442 0.442 0 0 1 18.96 18.9 L 18.96 12 L 21.93 0.24 A 0.445 0.445 0 0 1 21.995 0.121 Q 22.082 0.01 22.234 0.001 A 0.456 0.456 0 0 1 22.26 0 Z M 102.81 15 L 102.81 4.2 Q 102.81 2.688 103.404 1.703 A 3.249 3.249 0 0 1 103.89 1.08 A 3.473 3.473 0 0 1 105.384 0.214 Q 105.922 0.054 106.568 0.014 A 7.127 7.127 0 0 1 107.01 0 L 117.09 0 Q 118.602 0 119.587 0.594 A 3.249 3.249 0 0 1 120.21 1.08 A 3.473 3.473 0 0 1 121.076 2.574 Q 121.237 3.112 121.277 3.758 A 7.127 7.127 0 0 1 121.29 4.2 L 121.29 15 Q 121.29 16.512 120.697 17.497 A 3.249 3.249 0 0 1 120.21 18.12 A 3.473 3.473 0 0 1 118.717 18.986 Q 118.178 19.147 117.532 19.187 A 7.127 7.127 0 0 1 117.09 19.2 L 107.01 19.2 Q 105.498 19.2 104.513 18.607 A 3.249 3.249 0 0 1 103.89 18.12 A 3.473 3.473 0 0 1 103.024 16.627 Q 102.864 16.088 102.824 15.442 A 7.127 7.127 0 0 1 102.81 15 Z M 112.26 5.28 L 111.84 5.28 L 111.84 13.92 L 112.26 13.92 L 112.26 5.28 Z M 28.38 5.28 L 28.02 5.28 L 27.96 10.8 L 28.44 10.8 L 28.38 5.28 Z" vector-effect="non-scaling-stroke"/></g></svg>